<?xml version="1.0" standalone="no"?>
<!DOCTYPE svg PUBLIC "-//W3C//DTD SVG 20010904//EN"
 "http://www.w3.org/TR/2001/REC-SVG-20010904/DTD/svg10.dtd">
<svg version="1.0" xmlns="http://www.w3.org/2000/svg"
 width="501.000000pt" height="498.000000pt" viewBox="0 0 501.000000 498.000000"
 preserveAspectRatio="xMidYMid meet">

<g transform="translate(0.000000,498.000000) scale(0.100000,-0.100000)"
fill="#000000" stroke="none">
<path d="M1818 3215 c-124 -84 -120 -271 6 -350 48 -29 51 -29 221 -35 155 -4
177 -7 202 -26 17 -13 55 -72 97 -154 l69 -134 38 75 c21 41 38 80 39 87 0 23
-100 215 -128 245 -47 50 -68 55 -218 58 -76 1 -161 5 -189 8 -45 5 -52 10
-67 41 -22 43 -23 128 -4 175 14 34 14 35 -7 35 -12 0 -39 -11 -59 -25z"/>
<path d="M3190 3237 c0 -2 7 -21 15 -40 30 -72 13 -180 -32 -205 -9 -6 -68 -8
-132 -5 -151 7 -251 -7 -296 -41 -45 -35 -420 -764 -411 -800 6 -26 82 -99 97
-94 6 2 91 163 190 358 99 195 194 369 210 385 l29 30 178 5 c140 5 184 9 209
23 136 72 152 261 31 356 -24 20 -88 40 -88 28z"/>
<path d="M433 2996 c-242 -56 -393 -242 -393 -486 0 -238 166 -434 408 -481
134 -26 342 7 467 74 l60 32 3 203 2 202 -135 0 -135 0 0 -112 c0 -62 -4 -119
-9 -127 -15 -23 -152 -27 -206 -7 -110 43 -165 188 -120 317 32 90 107 138
216 139 72 0 146 -29 189 -75 l23 -24 88 75 c48 42 93 82 100 90 26 32 -108
132 -228 170 -68 22 -253 27 -330 10z"/>
<path d="M1535 2979 c-156 -22 -303 -117 -363 -235 -92 -180 -70 -387 55 -533
157 -184 490 -222 703 -80 92 62 178 181 183 255 2 22 -3 29 -23 34 -16 3 -32
19 -43 42 -15 31 -27 40 -81 58 -35 11 -81 34 -103 50 l-40 29 1 -72 c0 -92
-16 -137 -63 -180 -49 -44 -100 -61 -163 -54 -77 10 -135 58 -163 136 -19 56
-19 104 0 169 35 117 160 173 272 123 l42 -19 -19 44 c-76 176 -113 246 -130
243 -3 -1 -32 -5 -65 -10z"/>
<path d="M3447 2953 c-8 -21 -95 -220 -192 -443 -98 -223 -184 -420 -191 -438
l-14 -32 162 2 162 3 31 80 31 80 173 3 c109 1 178 -1 186 -8 7 -6 25 -44 40
-85 l27 -75 165 0 c90 0 163 4 161 9 -1 4 -95 218 -207 475 l-205 466 -157 0
-157 0 -15 -37z m221 -403 c22 -58 36 -107 31 -110 -10 -7 -157 -5 -164 2 -3
3 13 56 36 117 23 62 45 109 50 104 4 -4 25 -55 47 -113z"/>
<path d="M4250 2515 l0 -475 370 0 370 0 0 125 0 125 -215 0 -215 0 0 350 0
350 -155 0 -155 0 0 -475z"/>
<path d="M1854 2732 c35 -67 144 -132 222 -132 16 0 30 -13 48 -44 18 -30 43
-53 80 -75 38 -21 66 -47 90 -82 l34 -51 16 30 c9 17 16 38 16 47 0 9 -34 83
-75 164 -55 109 -81 151 -100 159 -16 8 -85 12 -186 12 l-160 0 15 -28z"/>
<path d="M2889 2737 c-28 -19 -63 -79 -206 -362 -95 -187 -173 -344 -173 -349
0 -5 22 -6 50 -4 62 6 132 48 172 105 29 39 30 44 21 95 -18 109 24 199 120
258 38 23 66 49 80 75 21 37 26 40 79 47 90 11 153 51 203 131 l17 27 -164 0
c-155 0 -167 -1 -199 -23z"/>
<path d="M1401 1853 c-48 -24 -71 -67 -71 -132 0 -49 3 -57 38 -91 54 -55 142
-66 196 -25 33 25 7 36 -45 19 -41 -14 -50 -14 -82 -1 -46 20 -70 57 -69 110
1 35 7 47 36 75 40 36 79 41 127 17 29 -15 49 -13 49 5 0 17 -59 40 -102 40
-24 0 -58 -8 -77 -17z"/>
<path d="M1698 1803 c-16 -38 -45 -101 -63 -140 -20 -42 -29 -75 -24 -79 14
-8 35 11 49 46 12 29 14 30 86 30 l74 0 20 -40 c19 -36 50 -55 50 -30 0 6 -28
71 -61 145 -75 163 -85 169 -131 68z m84 -45 l26 -63 -55 -3 c-30 -2 -57 -1
-59 1 -2 2 3 21 12 43 9 21 20 49 25 62 13 35 24 27 51 -40z"/>
<path d="M1947 1863 c-2 -4 -4 -69 -3 -143 1 -120 3 -135 19 -138 14 -3 17 4
17 42 l0 46 48 0 c46 0 50 -2 81 -45 18 -25 39 -45 47 -45 20 0 18 11 -11 50
-14 19 -25 38 -25 43 0 5 11 18 25 29 20 16 25 28 25 67 0 38 -5 52 -26 72
-22 21 -37 24 -109 27 -45 2 -85 0 -88 -5z m175 -53 c23 -28 23 -52 0 -80 -15
-18 -29 -23 -78 -24 l-59 -1 -3 54 c-5 80 -1 84 65 79 43 -4 61 -10 75 -28z"/>
<path d="M2249 1868 c-3 -15 -5 -257 -1 -270 2 -10 11 -18 18 -18 11 0 14 22
14 105 0 58 3 105 8 105 4 0 44 -47 90 -105 46 -58 90 -105 98 -105 11 0 14
26 14 145 0 138 -1 145 -20 145 -18 0 -20 -8 -22 -105 l-3 -105 -83 105 c-46
58 -90 105 -98 105 -8 0 -14 -1 -15 -2z"/>
<path d="M2582 1728 c3 -119 5 -143 18 -143 13 0 15 24 18 143 2 138 2 142
-18 142 -20 0 -20 -4 -18 -142z"/>
<path d="M2763 1855 c-47 -20 -73 -68 -73 -134 0 -49 3 -57 38 -91 54 -55 142
-66 196 -25 33 25 6 36 -44 18 -41 -14 -48 -14 -82 0 -44 19 -72 58 -72 103 0
89 87 141 168 99 28 -15 46 -13 46 5 0 17 -59 40 -102 40 -24 -1 -58 -7 -75
-15z"/>
<path d="M3010 1725 l0 -146 103 3 c83 2 102 6 102 18 0 12 -17 16 -82 18
l-83 3 0 44 0 45 71 0 c62 0 70 2 67 18 -3 14 -16 18 -71 20 l-67 3 0 44 0 45
80 0 c64 0 80 3 80 15 0 12 -18 15 -100 15 l-100 0 0 -145z"/>
<path d="M3287 1863 c-2 -4 -4 -69 -3 -143 1 -120 3 -135 19 -138 14 -3 17 4
17 42 l0 46 50 0 c47 0 50 -2 80 -45 17 -25 37 -45 45 -45 21 0 19 10 -10 52
-14 20 -25 40 -25 43 0 3 12 16 26 29 38 32 38 97 0 134 -24 24 -35 27 -110
30 -46 2 -86 0 -89 -5z m175 -53 c23 -28 23 -52 -1 -81 -16 -20 -28 -23 -77
-24 l-59 0 -3 54 c-5 80 -1 84 65 79 43 -4 61 -10 75 -28z"/>
<path d="M3590 1725 c0 -122 2 -145 15 -145 13 0 15 23 15 145 0 122 -2 145
-15 145 -13 0 -15 -23 -15 -145z"/>
<path d="M3774 1813 c-55 -123 -94 -215 -94 -224 0 -23 30 -5 47 29 l18 37 75
0 75 0 18 -37 c18 -37 47 -52 47 -25 0 7 -27 72 -59 143 -72 157 -87 166 -127
77z m76 -45 c12 -29 24 -59 27 -65 4 -10 -11 -13 -57 -13 -46 0 -61 3 -57 13
37 88 51 117 57 117 4 0 17 -24 30 -52z"/>
</g>
</svg>
